HIERARCHY
ROOT Hips
{
	OFFSET 0.000000 88.474243 0.000000
	CHANNELS 6 Xposition Yposition Zposition Zrotation Yrotation Xrotation 
	JOINT Hips_Spine
	{
		OFFSET 0.000000 0.000000 0.000000
		CHANNELS 3 Zrotation Yrotation Xrotation
		JOINT Spine
		{
			OFFSET 0.005100 8.711998 -0.691000
			CHANNELS 3 Zrotation Yrotation Xrotation
			JOINT Spine1
			{
				OFFSET -0.009200 8.660301 -1.275000
				CHANNELS 3 Zrotation Yrotation Xrotation
				JOINT Spine2
				{
					OFFSET 0.006300 9.852501 -1.857000
					CHANNELS 3 Zrotation Yrotation Xrotation
					JOINT Spine2_Neck
					{
						OFFSET 0.000000 0.000000 0.000000
						CHANNELS 3 Zrotation Yrotation Xrotation
						JOINT Neck
						{
							OFFSET 0.016300 11.420799 -0.263300
							CHANNELS 3 Zrotation Yrotation Xrotation
							End Site #name: Head
							{
								OFFSET -0.019200 9.262405 2.362500
							}
						}
					}
					JOINT Spine2_LeftShoulder
					{
						OFFSET 0.000000 0.000000 0.000000
						CHANNELS 3 Zrotation Yrotation Xrotation
						JOINT LeftShoulder
						{
							OFFSET 5.616900 6.732201 -0.345700
							CHANNELS 3 Zrotation Yrotation Xrotation
							JOINT LeftArm
							{
								OFFSET 10.664888 -0.183372 -2.440700
								CHANNELS 3 Zrotation Yrotation Xrotation
								JOINT LeftForeArm
								{
									OFFSET 27.459126 0.000000 0.000000
									CHANNELS 3 Zrotation Yrotation Xrotation
									End Site #name: LeftHand
									{
										OFFSET 21.306858 0.000000 0.000000
									}
								}
							}
						}
					}
					JOINT Spine2_RightShoulder
					{
						OFFSET 0.000000 0.000000 0.000000
						CHANNELS 3 Zrotation Yrotation Xrotation
						JOINT RightShoulder
						{
							OFFSET -5.580300 6.737503 -0.344400
							CHANNELS 3 Zrotation Yrotation Xrotation
							JOINT RightArm
							{
								OFFSET -10.679335 -0.188484 -2.383900
								CHANNELS 3 Zrotation Yrotation Xrotation
								JOINT RightForeArm
								{
									OFFSET -27.503529 0.000000 0.000000
									CHANNELS 3 Zrotation Yrotation Xrotation
									End Site #name: RightHand
									{
										OFFSET -21.306808 0.000000 0.000000
									}
								}
							}
						}
					}
				}
			}
		}
	}
	JOINT Hips_LeftUpLeg
	{
		OFFSET 0.000000 0.000000 0.000000
		CHANNELS 3 Zrotation Yrotation Xrotation
		JOINT LeftUpLeg
		{
			OFFSET 6.857700 -6.739601 0.312100
			CHANNELS 3 Zrotation Yrotation Xrotation
			JOINT LeftLeg
			{
				OFFSET -0.367590 -34.731552 -4.572400
				CHANNELS 3 Zrotation Yrotation Xrotation
				End Site #name: LeftFoot
				{
					OFFSET 0.367590 -34.656704 -6.067400
				}
			}
		}
	}
	JOINT Hips_RightUpLeg
	{
		OFFSET 0.000000 0.000000 0.000000
		CHANNELS 3 Zrotation Yrotation Xrotation
		JOINT RightUpLeg
		{
			OFFSET -6.876100 -6.733299 0.301000
			CHANNELS 3 Zrotation Yrotation Xrotation
			JOINT RightLeg
			{
				OFFSET 0.347353 -34.795158 -4.515900
				CHANNELS 3 Zrotation Yrotation Xrotation
				End Site #name: RightFoot
				{
					OFFSET -0.347353 -34.589367 -6.070300
				}
			}
		}
	}
}
MOTION
Frames: 10
Frame Time: 0.041667
0.028593 -0.034713 -0.092769 -179.758412 36.386075 -176.300058 -0.000000 -0.000000 0.000000 -3.802314 3.206442 -2.134508 1.122757 -0.232624 0.424857 0.000000 0.000000 0.000000 0.474664 -0.932725 -2.985287 -1.347402 -8.882161 -1.008076 0.533203 0.016008 -1.326055 -2.738468 -8.810525 1.655688 -79.095902 -8.672847 7.570485 0.815729 -18.263281 4.023115 0.335425 -0.474819 -2.046346 16.981684 12.677361 4.143616 51.826092 13.280942 -10.115744 -10.054503 79.697166 -4.062559 0.000000 -0.000000 0.000000 -8.767830 18.479138 -17.046636 -7.455165 -35.454087 3.039661 0.000000 -0.000000 -0.000000 -8.230030 -28.235429 -8.860799 -15.283651 -8.807940 17.394029 
-0.154650 -0.211788 -0.183902 179.175908 47.658756 -176.361083 -0.000000 -0.000000 0.000000 -5.990333 2.877451 0.332946 1.311481 -0.487878 -0.713345 0.000000 0.000000 0.000000 1.365477 -0.577245 -3.003568 0.014265 -17.788579 0.052819 0.765283 -0.284322 -2.149304 -1.248791 -11.231530 1.947469 -85.115395 -16.739916 2.970940 -1.104166 -13.911154 1.968024 1.104275 -0.756754 -1.191686 21.491805 15.400177 4.190224 50.965760 12.662646 -10.844399 -0.251901 63.415906 3.362001 0.000000 -0.000000 -0.000000 -6.971804 19.891270 -14.895210 -4.378651 -33.322728 -2.127889 0.000000 -0.000000 -0.000000 -8.127532 -33.506408 -7.607955 -13.550417 -4.604283 16.257529 
-0.255525 -0.298029 -0.249178 178.660583 38.066049 -177.005836 -0.000000 -0.000000 0.000000 -6.831450 -0.222021 0.768168 1.635913 -0.518238 -1.485375 0.000000 0.000000 0.000000 1.827833 -0.727943 -3.288527 -0.680466 -27.645708 0.022634 0.878328 -0.208552 -2.765604 0.215880 -10.792654 1.318619 -86.523746 -18.082798 -2.463158 -0.802981 -6.580063 2.681497 1.454108 -0.854570 -2.716666 22.770693 17.117158 4.994296 52.105921 12.558461 -4.781666 -1.499403 60.985583 4.371513 -0.000000 0.000000 -0.000000 -5.456985 21.117094 -13.505149 -3.299703 -32.040855 -3.934512 -0.000000 -0.000000 -0.000000 -8.106000 -38.131885 -5.575622 -13.374766 -4.150796 16.709735 
-0.182729 -0.345812 -0.302077 178.816136 27.280741 -177.688018 -0.000000 -0.000000 0.000000 -6.735944 -1.545252 1.729285 1.323288 -0.970608 -1.911451 0.000000 0.000000 0.000000 1.785037 -1.073354 -2.970498 -1.201766 -32.228915 -0.078508 0.770172 -0.470666 -3.011724 0.765527 -10.310330 0.942250 -87.774449 -18.816892 -2.363738 0.552160 -4.560084 3.953900 1.256350 -1.431619 -2.623521 21.513488 16.558604 5.022407 52.784415 13.984750 -1.784319 0.131684 58.203420 6.418300 -0.000000 0.000000 -0.000000 -4.684024 21.791305 -12.404362 -2.674659 -32.987916 -4.729103 -0.000000 -0.000000 -0.000000 -8.311384 -44.332672 -4.892185 -13.349240 -3.110010 17.528404 
-0.054054 -0.357347 -0.390816 178.318762 16.932627 -178.305531 -0.000000 -0.000000 0.000000 -6.215896 -1.738259 2.057278 0.977817 -1.326698 -1.909985 0.000000 0.000000 0.000000 1.648887 -1.391807 -2.175974 -1.107475 -33.304827 -0.392370 0.551409 -0.800302 -2.801722 0.854956 -9.897085 0.769453 -88.453837 -19.477396 -1.780538 2.213529 -3.986687 5.758304 0.882032 -1.823709 -1.865683 19.401203 15.499359 4.650162 53.389125 14.280360 1.230869 1.143939 54.886866 6.602074 -0.000000 0.000000 -0.000000 -4.475915 22.261437 -12.027625 -2.341114 -33.986490 -5.416871 -0.000000 -0.000000 -0.000000 -8.414283 -49.375769 -4.686013 -13.625661 -2.339426 18.018506 
0.090460 -0.345060 -0.509023 177.409015 8.394192 -178.664490 -0.000000 -0.000000 0.000000 -5.557065 -1.092417 2.200982 0.657804 -1.581399 -1.395100 0.000000 0.000000 0.000000 1.438269 -1.547245 -1.113723 -0.802930 -32.230883 -0.861896 0.308318 -1.023718 -2.175286 0.787403 -9.437613 0.704327 -88.714074 -19.425510 -0.861683 3.516956 -4.407460 7.131590 0.606631 -2.028122 -0.803315 17.717403 14.159406 4.932182 54.015748 13.636160 3.614425 0.916875 52.572720 5.761904 -0.000000 0.000000 -0.000000 -4.692394 22.138396 -12.318087 -2.181215 -34.730844 -5.970711 -0.000000 -0.000000 -0.000000 -8.303049 -53.242634 -5.043395 -14.132938 -2.283306 18.291553 
0.244154 -0.310118 -0.644393 176.277230 2.056988 -178.817986 -0.000000 -0.000000 0.000000 -5.098653 0.244419 2.422327 0.354077 -1.628237 -0.499609 0.000000 0.000000 0.000000 1.192268 -1.584114 -0.001910 -0.224388 -30.557680 -1.462907 0.108657 -1.141820 -1.485161 0.617617 -8.826942 0.683098 -88.645058 -19.239694 0.460694 4.257999 -5.882761 7.890152 0.372226 -2.088471 -0.328676 16.565065 13.494358 4.711363 54.646300 11.779643 5.424958 0.224615 50.441038 5.297760 -0.000000 0.000000 -0.000000 -5.007237 21.748056 -12.819238 -2.090115 -35.283826 -6.607865 -0.000000 -0.000000 -0.000000 -8.302140 -55.729690 -5.390298 -14.695873 -2.990891 18.209126 
0.397102 -0.264676 -0.788485 175.438117 -2.451829 -178.791909 -0.000000 -0.000000 0.000000 -4.936634 1.553284 2.690215 0.077678 -1.553433 0.515297 0.000000 0.000000 0.000000 0.917263 -1.532416 0.965653 0.231819 -28.999572 -1.734832 -0.036317 -1.151949 -0.967716 0.480344 -8.283833 0.683802 -88.237868 -19.298526 1.928219 4.583172 -8.134557 7.883243 0.108300 -2.079140 -0.035050 15.847356 13.655554 4.116393 55.232104 10.299358 7.149637 0.291606 48.618327 5.636860 -0.000000 0.000000 -0.000000 -5.234904 21.267545 -13.155151 -2.048267 -35.560784 -7.113860 -0.000000 -0.000000 -0.000000 -8.323802 -57.011623 -5.749440 -15.157166 -3.959781 17.924360 
0.549194 -0.212434 -0.930161 174.862323 -6.458276 -178.738603 -0.000000 -0.000000 0.000000 -5.021872 2.579847 3.245798 -0.143297 -1.411400 1.233629 0.000000 0.000000 0.000000 0.620207 -1.415605 1.643331 0.476751 -28.127991 -1.814914 -0.194246 -1.096849 -0.546856 0.384108 -7.794878 0.704244 -87.367228 -19.488730 2.538322 4.694167 -11.003858 7.275937 -0.195724 -2.014732 0.269208 15.406988 14.056049 3.448712 55.406106 10.023805 7.194831 1.398041 46.154105 6.557546 0.000000 0.000000 -0.000000 -5.296482 20.884341 -13.030335 -1.974692 -35.723266 -7.593538 -0.000000 -0.000000 -0.000000 -8.363796 -57.565730 -6.046578 -15.360044 -4.875928 17.497261 
0.695363 -0.154518 -1.076844 174.460808 -10.257747 -178.653088 -0.000000 -0.000000 0.000000 -5.324226 3.203057 3.761457 -0.355969 -1.310763 1.666329 0.000000 0.000000 0.000000 0.380240 -1.317461 2.030886 0.621717 -28.163186 -1.685859 -0.348390 -1.048978 -0.287443 0.306162 -7.367645 0.743337 -86.395185 -19.814307 2.826058 4.892800 -14.178427 6.464308 -0.463932 -1.954633 0.487488 15.198768 14.253884 3.224403 55.494674 9.945829 6.992126 3.011552 43.962154 7.583858 0.000000 0.000000 -0.000000 -5.213664 20.586533 -12.498605 -1.923414 -35.929735 -7.979628 -0.000000 -0.000000 -0.000000 -8.605350 -57.654393 -6.043737 -15.190653 -5.615440 16.857098 
